<svg width="370" height="247" viewBox="0 0 370 247" fill="none" xmlns="http://www.w3.org/2000/svg">
  <!-- 캐릭터 몸체 -->
  <circle cx="185" cy="120" r="50" fill="#FFFFFF" stroke="#000000" stroke-width="3"/>
  
  <!-- 얼굴 -->
  <circle cx="170" cy="110" r="8" fill="#000000"/>
  <circle cx="200" cy="110" r="8" fill="#000000"/>
  <path d="M175 130 Q185 140 195 130" stroke="#000000" stroke-width="2" fill="none"/>
  
  <!-- 볼터치 -->
  <circle cx="160" cy="105" r="3" fill="#FF69B4"/>
  <circle cx="210" cy="105" r="3" fill="#FF69B4"/>
  
  <!-- 별 눈 -->
  <path d="M170 110 L172 106 L176 106 L173 103 L174 99 L170 101 L166 99 L167 103 L164 106 L168 106 Z" fill="#FFFFFF"/>
  <path d="M200 110 L202 106 L206 106 L203 103 L204 99 L200 101 L196 99 L197 103 L194 106 L198 106 Z" fill="#FFFFFF"/>
  
  <!-- 유니폼 -->
  <rect x="160" y="170" width="50" height="40" rx="10" fill="#9400EA"/>
  <rect x="160" y="170" width="50" height="20" rx="10" fill="#7E00C6"/>
  
  <!-- 팔 -->
  <rect x="130" y="160" width="20" height="35" rx="10" fill="#9400EA"/>
  <rect x="220" y="160" width="20" height="35" rx="10" fill="#9400EA"/>
  
  <!-- 다리 -->
  <rect x="170" y="210" width="15" height="30" rx="7" fill="#9400EA"/>
  <rect x="195" y="210" width="15" height="30" rx="7" fill="#9400EA"/>
  
  <!-- 신발 -->
  <ellipse cx="177" cy="245" rx="12" ry="6" fill="#000000"/>
  <ellipse cx="203" cy="245" rx="12" ry="6" fill="#000000"/>
  
  <!-- 깃발 -->
  <rect x="250" y="80" width="3" height="50" fill="#000000"/>
  <path d="M253 80 Q270 85 270 95 Q270 105 253 110 Z" fill="#9400EA"/>
  
  <!-- 손 -->
  <circle cx="120" cy="175" r="8" fill="#FFFFFF"/>
  <circle cx="250" cy="175" r="8" fill="#FFFFFF"/>
  
  <!-- 반짝이 효과 -->
  <path d="M140 130 L142 126 L146 126 L143 123 L144 119 L140 121 L136 119 L137 123 L134 126 L138 126 Z" fill="#FFD700"/>
  <path d="M230 140 L232 136 L236 136 L233 133 L234 129 L230 131 L226 129 L227 133 L224 136 L228 136 Z" fill="#FFD700"/>
  <path d="M150 100 L152 96 L156 96 L153 93 L154 89 L150 91 L146 89 L147 93 L144 96 L148 96 Z" fill="#FFD700"/>
</svg>
